<?xml version="1.0" encoding="UTF-8"?>
<!-- The Stratum lockup for a light background: the copper strata tile and the wordmark in graphite. Logo-dark.svg is the same artwork with a light wordmark; README.md picks between them with <picture>. The wordmark is live text set in the UI face (Geist), falling back to the system sans. -->
<svg xmlns="http://www.w3.org/2000/svg" viewBox="0 0 168 40" width="336" height="80" role="img" aria-label="Stratum">
	<title>Stratum</title>
	<g transform="translate(2 4) scale(1.3333)">
	<rect width="24" height="24" rx="6.5" fill="#b5561f"/>
	<path d="M0 9.8C6 7.6 13 12.2 24 9.2V17.5A6.5 6.5 0 0 1 17.5 24H6.5A6.5 6.5 0 0 1 0 17.5Z" fill="#2a1206" opacity="0.16"/>
	<path d="M0 13.6C7 11.6 14 15.9 24 13V17.5A6.5 6.5 0 0 1 17.5 24H6.5A6.5 6.5 0 0 1 0 17.5Z" fill="#2a1206" opacity="0.2"/>
	<path d="M0 17.3C7.5 15.6 15 19.2 24 16.8V17.5A6.5 6.5 0 0 1 17.5 24H6.5A6.5 6.5 0 0 1 0 17.5Z" fill="#2a1206" opacity="0.26"/>
	<circle cx="15.7" cy="13.9" r="1.9" fill="#ffffff"/>
	</g>
	<text x="44" y="28.5" fill="#14171c" font-family="Geist, 'Segoe UI', system-ui, sans-serif" font-size="26" font-weight="650" letter-spacing="-0.9">Stratum</text>
</svg>
